Poster: 
http://img502.imageshack.us/img502/2781/tedmovieposter1.jpg

Info:
Format : AVI
Format/Info : Audio Video Interleave
File size : 1.72 GiB
Duration : 1h 46mn
Overall bit rate : 2 316 Kbps
Writing library : VirtualDub build 34807/release

Video
ID : 0
Format : MPEG-4 Visual
Format profile : Advanced Simple@L5
Format settings, BVOP : 2
Format settings, QPel : No
Format settings, GMC : No warppoints
Format settings, Matrix : Custom
Codec ID : XVID
Codec ID/Hint : XviD
Duration : 1h 46mn
Bit rate : 1 858 Kbps
Width : 720 pixels
Height : 384 pixels
Display aspect ratio : 1.85:1
Frame rate : 23.976 fps
Color space : YUV
Chroma subsampling : 4:2:0
Bit depth : 8 bits
Scan type : Progressive
Compression mode : Lossy
Bits/(Pixel*Frame) : 0.280
Stream size : 1.38 GiB (80%)
Writing library : XviD 1.2.1 (UTC 2008-12-04)

Audio
ID : 1
Format : AC-3
Format/Info : Audio Coding 3
Mode extension : CM (complete main)
Format settings, Endianness : Big
Codec ID : 2000
Duration : 1h 46mn
Bit rate mode : Constant
Bit rate : 448 Kbps
Channel(s) : 6 channels
Channel positions : Front: L C R, Side: L R, LFE
Sampling rate : 48.0 KHz
Bit depth : 16 bits
Compression mode : Lossy
Stream size : 340 MiB (19%)
Alignment : Split accross interleaves
Interleave, duration : 42 ms (1.00 video frame)
Interleave, preload duration : 500 ms

Screens:
 
http://www.pixentral.com/pics/1qp3ryeFoKj6TZLXDPnq6pfebRi7a.jpg 
http://www.pixentral.com/pics/1tkRJNchOFkyMvIXAN1tbNPFjW9hH91.jpg 
http://www.pixentral.com/pics/1GORZBcx73p3H6Z5CVHt2ziJiqMjQ.jpg 
http://www.pixentral.com/pics/1QLovWrwZNXeccbAIWbPcU5BOmXFbD1.jpg 
http://www.pixentral.com/pics/1jNMBgnlCVxuyjmrtSPoEBP9y7jZvK0.jpg

